<svg id="logo" xmlns="http://www.w3.org/2000/svg" viewBox="0 0 226.7 185.8"><path d="M4.9 46V.2h12.4V36h17.6v10h-30zm68.7 0l-2.3-8.6H56.4L54.1 46H40.5l15-46H72l15.1 46H73.6zm-4.9-18.7l-2-7.5c-.5-1.7-1-3.8-1.7-6.5s-1.1-4.6-1.3-5.7c-.2 1.1-.6 2.8-1.1 5.3-.6 2.4-1.8 7.3-3.7 14.5h9.8zM4.9 69.8h16c6.2 0 10.8.9 13.9 2.8 3 1.8 4.5 4.7 4.5 8.6 0 2.6-.7 4.8-2 6.6-1.3 1.8-3 3-5.2 3.5v.3c2.8.8 4.9 2 6.2 3.8 1.3 1.8 1.9 4 1.9 6.8 0 4.2-1.6 7.4-4.7 9.8-3.1 2.4-7.4 3.6-12.8 3.6H4.9V69.8zm12.4 17.5H21c1.8 0 3.1-.4 4.1-1.1 1-.7 1.5-1.8 1.5-3.3 0-2.6-1.9-3.9-5.8-3.9h-3.5v8.3zm0 9.1v9.6h4.4c3.9 0 5.8-1.6 5.8-4.9 0-1.5-.5-2.7-1.5-3.5-1-.8-2.5-1.2-4.5-1.2h-4.2zm34.1 19.2V69.8h12.4v45.8H51.4zm52.7 0H76.9V69.8h27.2v9.9H89.3v7.2H103v9.9H89.3v8.7h14.8v10.1zm54.8 0h-16.2L126 83.3h-.3c.4 5.1.6 9 .6 11.6v20.7h-11V69.8h16.2l16.7 31.9h.2c-.3-4.6-.4-8.3-.4-11.1V69.8h11v45.8zM30.7 139.3h13.8l-15 45.8H14.9L0 139.3h13.9l6.2 23.2c1.3 5.2 2 8.8 2.1 10.8.1-1.5.4-3.3.9-5.5s.8-3.9 1.2-5.2l6.4-23.3zm49.1 45.9H52.6v-45.8h27.2v9.9H65v7.2h13.7v9.9H65v8.7h14.8v10.1zm54.8 0h-16.2l-16.7-32.3h-.3c.4 5.1.6 9 .6 11.6v20.7H91v-45.8h16.2l16.7 31.9h.2c-.3-4.6-.4-8.3-.4-11.1v-20.7h11v45.7zm52.1-45.9v27.6c0 6-1.7 10.6-5.1 13.9-3.4 3.3-8.3 4.9-14.7 4.9-6.2 0-11-1.6-14.4-4.8s-5-7.8-5-13.8v-27.9h12.4v26.9c0 3.2.6 5.6 1.8 7.1 1.2 1.5 3 2.2 5.4 2.2 2.5 0 4.4-.7 5.5-2.2 1.1-1.5 1.7-3.8 1.7-7.1v-26.8h12.4zm40 45.9h-27.2v-45.8h27.2v9.9h-14.8v7.2h13.7v9.9h-13.7v8.7h14.8v10.1z"/></svg>